<svg version="1.1" id="Layer_1" xmlns="http://www.w3.org/2000/svg" xmlns:xlink="http://www.w3.org/1999/xlink" x="0px" y="0px" width="106px" height="122px" viewBox="41 54 106 122"><g><path fill="#FFFFFF" stroke="#ED1D24" stroke-width="2" d="M143.099,93.757c0,0-14.173,8.549-13.724,23.173 c0.449,14.624,11.954,23.413,15.974,24.073c1.569,0.258-9.245,22.049-15.984,27.448c-6.74,5.4-13.714,6.524-24.513,2.25c-10.8-4.275-18.449,0.275-24.749,2.612c-6.299,2.337-13.949-0.137-24.298-14.987c-10.349-14.849-21.823-49.271-6.074-66.146c15.749-16.874,33.298-10.124,38.022-7.875c4.725,2.25,13.05,2.025,22.499-2.25C119.7,77.782,138.374,86.782,143.099,93.757z"/></g><g><path fill="#FFFFFF" stroke="#ED1D24" stroke-width="2" d="M118.575,54.609c0,0,0.9,5.625-1.35,10.349s-10.718,20.936-22.994,17.999c-0.308-0.073-2.102-5.506,0.532-11.027C98.48,64.138,108.171,55.399,118.575,54.609z"/></g></svg>