<svg xmlns="http://www.w3.org/2000/svg" xmlns:xlink="http://www.w3.org/1999/xlink" version="1.1" x="0px" y="0px" width="128.5px" height="128.5px" viewBox="0 0 128.5 128.5" enable-background="new 0 0 128.5 128.5" xml:space="preserve"><path d="M0.5 124.5c1.301-4.451 2.672-8.882 3.891-13.355 c3.938-14.451 7.779-28.931 11.78-43.365c0.441-1.592 1.408-3.23 2.578-4.4c20.327-20.32 40.725-40.571 61.109-60.833 C80.558 1.9 81.3 1.2 82 0.5c1.5 0 3 0 4.5 0c2.934 0.9 5.9 1.7 8.8 2.624c2.191 0.7 2.5 1.7 1 3.4 c-0.545 0.627-1.166 1.188-1.758 1.775c-18.26 18.14-36.545 36.255-54.769 54.432c-6.979 6.962-6.303 6.33-14.995 4.1 c-2.918-0.759-3.453-0.471-4.248 2.456c-2.114 7.789-4.171 15.595-6.346 23.367c-0.437 1.559-0.187 2.6 1 3.7 c5.562 5.4 11.1 10.8 16.5 16.399c1.973 2.1 3.7 2.6 6.5 1.776c7.411-2.214 14.929-4.07 22.411-6.049 c2.024-0.535 3.055-1.494 2.181-3.77c-0.594-1.546-0.876-3.209-1.345-4.805c-0.776-2.646-0.203-4.88 1.774-6.842 c19.573-19.418 39.122-38.862 58.695-58.28c2.151-2.135 3.225-1.797 4.1 1.135c0.865 2.9 1.7 5.7 2.6 8.5 c0 1.3 0 2.7 0 4c-0.078 0.027-0.18 0.031-0.232 0.084C107.491 69.2 86.7 89.9 65.9 110.5 c-1.066 1.057-2.534 1.955-3.974 2.35c-13.228 3.625-26.499 7.098-39.742 10.669c-5.916 1.596-11.799 3.317-17.696 5 c-1.333 0-2.667 0-4 0C0.5 127.2 0.5 125.8 0.5 124.5z M60.614 88.935c17.093-16.937 34.159-33.901 51.23-50.86 c2.599-2.582 5.215-5.147 7.792-7.751c2.492-2.519 2.485-3.542 0.029-5.988c-4.542-4.525-9.092-9.042-13.639-13.562 c-3.313-3.294-4.012-3.305-7.281-0.058C79.369 30 60 49.2 40.6 68.457c-0.59 0.586-1.192 1.168-1.71 1.8 c-1.161 1.45-1.151 2.8 0.3 4.183C44.45 79.6 49.7 84.9 55 90.1c0.552 0.5 1.4 0.8 2.3 1.4 C58.454 90.6 59.6 89.9 60.6 88.935z"/></svg>